<svg width="16" height="16" viewBox="0 0 16 16" fill="none" xmlns="http://www.w3.org/2000/svg">
  <path fill-rule="evenodd" clip-rule="evenodd" d="M8 0C3.58 0 0 3.58 0 8C0 11.54 2.29 14.39 5.47 15.48C5.87 15.56 6.02 15.32 6.02 15.11C6.02 14.92 6.01 14.31 6.01 13.55C4 13.97 3.48 12.75 3.48 12.75C3.13 11.86 2.64 11.61 2.64 11.61C1.99 11.17 2.66 11.18 2.66 11.18C3.35 11.23 3.73 11.91 3.73 11.91C4.36 12.92 5.34 12.64 5.73 12.44C5.78 11.97 5.97 11.64 6.18 11.45C4.51 11.26 2.77 10.59 2.77 7.57C2.77 6.71 3.08 6.03 3.58 5.52C3.5 5.34 3.22 4.5 3.66 3.39C3.66 3.39 4.27 3.19 6.01 4.26C6.61 4.08 7.28 4 7.95 4C8.62 4 9.29 4.08 9.89 4.26C11.63 3.19 12.24 3.39 12.24 3.39C12.68 4.5 12.4 5.34 12.32 5.52C12.82 6.03 13.13 6.71 13.13 7.57C13.13 10.6 11.38 11.25 9.7 11.45C9.97 11.71 10.22 12.25 10.22 13.01C10.22 14.04 10.21 14.86 10.21 15.11C10.21 15.32 10.36 15.56 10.76 15.48C13.94 14.39 16.23 11.54 16.23 8C16.23 3.58 12.42 0 8 0Z" fill="white"/>
</svg>
